<?xml version="1.0" encoding="utf-8"?>
<!-- Generator: Adobe Illustrator 25.2.0, SVG Export Plug-In . SVG Version: 6.00 Build 0)  -->
<svg version="1.1" id="Layer_1" xmlns="http://www.w3.org/2000/svg" xmlns:xlink="http://www.w3.org/1999/xlink" x="0px" y="0px"
	 viewBox="0 0 133.8 160" style="enable-background:new 0 0 133.8 160;" xml:space="preserve">
<style type="text/css">
	.st0{fill:url(#SVGID_1_);}
	.st1{fill:#0095CF;}
	.st2{fill:url(#SVGID_2_);}
	.st3{fill:url(#SVGID_3_);}
</style>
<g>
	<linearGradient id="SVGID_1_" gradientUnits="userSpaceOnUse" x1="115.901" y1="48.3288" x2="9.728" y2="126.3535">
		<stop  offset="0" style="stop-color:#E75245"/>
		<stop  offset="0.5077" style="stop-color:#ED8C46"/>
		<stop  offset="1" style="stop-color:#F7CD3D"/>
	</linearGradient>
	<path class="st0" d="M133.8,70.4h-17.4c-0.5,1.9-1,3.7-1.7,5.5c-2.9,7.8-7.4,14.8-13.1,20.5c-10.2,10.2-24.3,16.5-39.9,16.5H32
		c-0.8,0-1.6,0.2-2.3,0.6c-1.6,0.8-2.6,2.5-2.6,4.4V160H0v-53.3c0-10.7,8.7-19.4,19.5-19.4h38.9c8.6,0,16.5-3.5,22.2-9.2
		c0.7-0.7,1.3-1.4,2-2.2c1.4-1.7,2.6-3.5,3.6-5.5H67.7l17.6-30.5l14.5-25.1l0.9-1.6l3.7,6.4L115.1,38L133.8,70.4z"/>
	<g>
		<path class="st1" d="M61.8,0H0v73.7h14.7v-3.5h8.8v3.5H27V24.5h31.4c9.3,0,17.6,4,23.4,10.5l13.7-23.8C86.1,4.2,74.4,0,61.8,0z
			 M11,71.6H3.2v-7.8H11V71.6z M13.8,61.6H5.3v-8.5h8.5V61.6z M21.1,66.5h-5.2v-5.2h5.2V66.5z"/>
		<rect x="0" y="74.7" class="st1" width="7.3" height="7.3"/>
		<rect x="9.4" y="79.9" class="st1" width="4.6" height="4.6"/>
		<rect x="16" y="71.6" class="st1" width="6.1" height="6.1"/>
	</g>
	<linearGradient id="SVGID_2_" gradientUnits="userSpaceOnUse" x1="8.0559" y1="134.4091" x2="24.846" y2="121.8165">
		<stop  offset="0" style="stop-color:#E04547"/>
		<stop  offset="1" style="stop-color:#E14D55"/>
	</linearGradient>
	<path class="st2" d="M29.6,113.5c-1.5,0.8-2.6,2.5-2.6,4.4v4.7c0,0-27,9.2-27,28.6v-4.6C2.2,126.3,12.4,115.9,29.6,113.5z"/>
	<linearGradient id="SVGID_3_" gradientUnits="userSpaceOnUse" x1="13.0025" y1="158.1163" x2="16.2946" y2="137.3756">
		<stop  offset="0" style="stop-color:#EE8442"/>
		<stop  offset="1" style="stop-color:#E55E46"/>
	</linearGradient>
	<path class="st3" d="M27,122.6V160H0v-8.7C0,131.9,27,122.6,27,122.6z"/>
</g>
</svg>
